<svg width="119" height="18" viewBox="0 0 119 18" fill="none" xmlns="http://www.w3.org/2000/svg">
<g clip-path="url(#clip0_1_5)">
<path d="M12.8906 13.5047C13.9506 12.243 14.5317 10.6479 14.5317 9.00001C14.5317 7.35213 13.9506 5.75704 12.8906 4.49532C12.8437 4.43907 12.7922 4.39219 12.7453 4.34063C12.6422 4.21876 12.5344 4.10157 12.4219 3.98907L12.1875 3.76407C12.0891 3.67501 11.9906 3.58594 11.8828 3.50157L11.6109 3.30001C11.5078 3.22501 11.4047 3.15001 11.2922 3.07969L10.9922 2.90626C10.8797 2.84063 10.7625 2.77969 10.6406 2.71876L10.3547 2.58282C10.2234 2.52188 10.0922 2.47032 9.96093 2.42344C9.82968 2.37657 9.77811 2.34844 9.68436 2.32032C9.59061 2.29219 9.38436 2.23126 9.21561 2.19376L8.96249 2.12813C8.78905 2.09063 8.61561 2.06719 8.44218 2.04376C8.37186 2.04376 8.30155 2.01563 8.23124 2.01094C7.73282 1.95471 7.22966 1.95471 6.73124 2.01094C6.66093 2.01094 6.59061 2.01094 6.5203 2.04376C6.34686 2.06719 6.17343 2.09063 5.99999 2.12813L5.74686 2.19376C5.59686 2.23126 5.44061 2.27344 5.27811 2.32032C5.18436 2.34844 5.0953 2.38594 5.00155 2.42344C4.9078 2.46094 4.73905 2.52188 4.6078 2.58282L4.35936 2.71876C4.23749 2.77969 4.1203 2.84063 4.0078 2.90626L3.72186 3.07969C3.60936 3.15001 3.50624 3.22501 3.40311 3.30001L3.13124 3.50157C3.02343 3.58594 2.92499 3.67501 2.82655 3.76407L2.58749 3.97501C2.47499 4.08751 2.36718 4.20469 2.26405 4.32657C2.21718 4.37813 2.16561 4.42501 2.11874 4.48126C1.05876 5.74298 0.477661 7.33807 0.477661 8.98594C0.477661 10.6338 1.05876 12.2289 2.11874 13.4906C2.16561 13.5469 2.21718 13.5938 2.26405 13.6453C2.36718 13.7672 2.47499 13.8844 2.58749 13.9969L2.82655 14.2078C2.92499 14.2969 3.02343 14.3859 3.13124 14.4703L3.40311 14.6719C3.50624 14.7469 3.60936 14.8219 3.72186 14.8922L4.0078 15.0656C4.1203 15.1313 4.23749 15.1922 4.35936 15.2531L4.6453 15.3938C4.77655 15.45 4.9078 15.5016 5.03905 15.5484C5.1328 15.5859 5.22186 15.6234 5.31561 15.6516C5.40936 15.6797 5.61561 15.7406 5.78436 15.7781L6.03749 15.8438C6.21093 15.8813 6.38436 15.9047 6.5578 15.9281C6.62811 15.9281 6.69843 15.9563 6.76874 15.9609C7.26716 16.0172 7.77032 16.0172 8.26874 15.9609C8.33905 15.9609 8.40936 15.9375 8.47968 15.9281C8.65311 15.9047 8.82655 15.8813 8.99999 15.8438L9.25311 15.7781C9.40311 15.7406 9.55936 15.6984 9.72186 15.6516C9.81561 15.6234 9.90468 15.5859 9.99843 15.5484C10.0922 15.5109 10.2609 15.45 10.3922 15.3938L10.6781 15.2531C10.8 15.1922 10.9172 15.1313 11.0297 15.0656L11.3156 14.8922C11.4281 14.8219 11.5312 14.7469 11.6344 14.6719L11.9062 14.4703C12.0141 14.3859 12.1125 14.2969 12.2109 14.2078L12.45 13.9969C12.5625 13.8844 12.6703 13.7672 12.7734 13.6453C12.8203 13.5938 12.8719 13.5469 12.9187 13.4906L12.8906 13.5047ZM12.4828 12.4922C12.1592 12.1661 11.8043 11.8725 11.4234 11.6156C11.8176 9.89416 11.8176 8.10586 11.4234 6.38438C11.8043 6.12751 12.1592 5.83392 12.4828 5.50782C13.2059 6.52875 13.5942 7.74896 13.5942 9.00001C13.5942 10.2511 13.2059 11.4713 12.4828 12.4922ZM11.8453 13.2609C11.7703 13.3406 11.6953 13.4063 11.6156 13.4813L11.4047 13.6734C11.325 13.7391 11.2453 13.7953 11.1656 13.8563L10.9266 14.0344C10.8375 14.0953 10.7484 14.1469 10.6594 14.1984C10.5703 14.25 10.5 14.3016 10.4156 14.3484C10.3312 14.3953 10.2609 14.4234 10.1859 14.4609C10.5976 13.8872 10.9215 13.2552 11.1469 12.5859C11.4118 12.7766 11.6611 12.9882 11.8922 13.2188L11.8453 13.2609ZM4.3453 14.1984C4.25624 14.1469 4.16718 14.0953 4.07811 14.0344L3.83905 13.8563C3.75936 13.7953 3.67968 13.7391 3.59999 13.6734L3.38905 13.4813C3.30936 13.4063 3.23436 13.3406 3.15936 13.2609L3.11249 13.2141C3.34303 12.9786 3.59228 12.7623 3.8578 12.5672C4.07589 13.2351 4.39183 13.867 4.7953 14.4422C4.7203 14.4047 4.64061 14.3719 4.56561 14.3297C4.49061 14.2875 4.4203 14.25 4.34061 14.1984H4.3453ZM4.21874 9.00001C4.2191 8.28985 4.29134 7.58155 4.43436 6.88594C5.24658 7.28625 6.12823 7.52655 7.03124 7.59376V10.4531C6.1298 10.513 5.24822 10.7453 4.43436 11.1375C4.28976 10.4342 4.21751 9.718 4.21874 9.00001ZM3.15468 4.73907C3.22968 4.65938 3.30468 4.59376 3.38436 4.51876L3.5953 4.31251C3.67499 4.24688 3.75468 4.19063 3.83436 4.12969L4.07343 3.95157C4.16249 3.89063 4.25155 3.83907 4.34061 3.78751C4.42968 3.73594 4.49999 3.68438 4.58436 3.63751C4.66874 3.59063 4.73905 3.56251 4.81405 3.52501C4.41058 4.10022 4.09464 4.7321 3.87655 5.40001C3.604 5.21488 3.3469 5.00795 3.1078 4.78126L3.15468 4.73907ZM10.6547 3.80157C10.7437 3.85313 10.8328 3.90469 10.9219 3.96563L11.1609 4.14376C11.2406 4.20469 11.3203 4.26094 11.4 4.32657L11.6109 4.51876C11.6906 4.59376 11.7656 4.65938 11.8406 4.73907L11.8875 4.78594C11.6569 5.02137 11.4077 5.2377 11.1422 5.43282C10.9168 4.76354 10.5929 4.1316 10.1812 3.55782C10.2562 3.59532 10.3359 3.62813 10.4109 3.67032C10.4859 3.71251 10.5797 3.75001 10.6594 3.80157H10.6547ZM10.7812 9.00001C10.7809 9.71016 10.7086 10.4185 10.5656 11.1141C9.75175 10.7219 8.87018 10.4895 7.96874 10.4297V7.59376C8.87018 7.5339 9.75175 7.30157 10.5656 6.90938C10.7071 7.59732 10.7793 8.29768 10.7812 9.00001ZM7.96874 15.0188V11.3672C8.78749 11.432 9.58471 11.6615 10.3125 12.0422C9.84374 13.6078 8.96249 14.7422 7.96874 15.0188ZM7.96874 6.65626V2.98126C8.96249 3.25782 9.84374 4.38751 10.3125 5.95782C9.58646 6.34662 8.78916 6.58422 7.96874 6.65626ZM7.03124 2.98126V6.65626C6.21248 6.5915 5.41527 6.3619 4.68749 5.98126C5.15624 4.39219 6.03749 3.25782 7.03124 2.98126ZM7.03124 11.3672V15.0188C6.03749 14.7422 5.15624 13.6125 4.68749 12.0422C5.41527 11.6615 6.21248 11.432 7.03124 11.3672ZM2.51718 5.50782C2.84082 5.83392 3.19564 6.12751 3.57655 6.38438C3.18237 8.10586 3.18237 9.89416 3.57655 11.6156C3.19564 11.8725 2.84082 12.1661 2.51718 12.4922C1.79411 11.4713 1.40578 10.2511 1.40578 9.00001C1.40578 7.74896 1.79411 6.52875 2.51718 5.50782Z" fill="#BFBFBF"/>
</g>
<path d="M17.516 9.688C17.516 9.016 17.652 8.428 17.924 7.924C18.196 7.412 18.568 7.016 19.04 6.736C19.52 6.456 20.052 6.316 20.636 6.316C21.212 6.316 21.712 6.44 22.136 6.688C22.56 6.936 22.876 7.248 23.084 7.624V6.424H24.188V13H23.084V11.776C22.868 12.16 22.544 12.48 22.112 12.736C21.688 12.984 21.192 13.108 20.624 13.108C20.04 13.108 19.512 12.964 19.04 12.676C18.568 12.388 18.196 11.984 17.924 11.464C17.652 10.944 17.516 10.352 17.516 9.688ZM23.084 9.7C23.084 9.204 22.984 8.772 22.784 8.404C22.584 8.036 22.312 7.756 21.968 7.564C21.632 7.364 21.26 7.264 20.852 7.264C20.444 7.264 20.072 7.36 19.736 7.552C19.4 7.744 19.132 8.024 18.932 8.392C18.732 8.76 18.632 9.192 18.632 9.688C18.632 10.192 18.732 10.632 18.932 11.008C19.132 11.376 19.4 11.66 19.736 11.86C20.072 12.052 20.444 12.148 20.852 12.148C21.26 12.148 21.632 12.052 21.968 11.86C22.312 11.66 22.584 11.376 22.784 11.008C22.984 10.632 23.084 10.196 23.084 9.7ZM32.0334 9.46C32.0334 9.668 32.0214 9.888 31.9974 10.12H26.7414C26.7814 10.768 27.0014 11.276 27.4014 11.644C27.8094 12.004 28.3014 12.184 28.8774 12.184C29.3494 12.184 29.7414 12.076 30.0534 11.86C30.3734 11.636 30.5974 11.34 30.7254 10.972H31.9014C31.7254 11.604 31.3734 12.12 30.8454 12.52C30.3174 12.912 29.6614 13.108 28.8774 13.108C28.2534 13.108 27.6934 12.968 27.1974 12.688C26.7094 12.408 26.3254 12.012 26.0454 11.5C25.7654 10.98 25.6254 10.38 25.6254 9.7C25.6254 9.02 25.7614 8.424 26.0334 7.912C26.3054 7.4 26.6854 7.008 27.1734 6.736C27.6694 6.456 28.2374 6.316 28.8774 6.316C29.5014 6.316 30.0534 6.452 30.5334 6.724C31.0134 6.996 31.3814 7.372 31.6374 7.852C31.9014 8.324 32.0334 8.86 32.0334 9.46ZM30.9054 9.232C30.9054 8.816 30.8134 8.46 30.6294 8.164C30.4454 7.86 30.1934 7.632 29.8734 7.48C29.5614 7.32 29.2134 7.24 28.8294 7.24C28.2774 7.24 27.8054 7.416 27.4134 7.768C27.0294 8.12 26.8094 8.608 26.7534 9.232H30.9054ZM35.8028 13.108C35.2988 13.108 34.8468 13.024 34.4468 12.856C34.0468 12.68 33.7308 12.44 33.4988 12.136C33.2668 11.824 33.1388 11.468 33.1148 11.068H34.2428C34.2748 11.396 34.4268 11.664 34.6988 11.872C34.9788 12.08 35.3428 12.184 35.7908 12.184C36.2068 12.184 36.5348 12.092 36.7748 11.908C37.0148 11.724 37.1348 11.492 37.1348 11.212C37.1348 10.924 37.0068 10.712 36.7508 10.576C36.4948 10.432 36.0988 10.292 35.5628 10.156C35.0748 10.028 34.6748 9.9 34.3628 9.772C34.0588 9.636 33.7948 9.44 33.5708 9.184C33.3548 8.92 33.2468 8.576 33.2468 8.152C33.2468 7.816 33.3468 7.508 33.5468 7.228C33.7468 6.948 34.0308 6.728 34.3988 6.568C34.7668 6.4 35.1868 6.316 35.6588 6.316C36.3868 6.316 36.9748 6.5 37.4228 6.868C37.8708 7.236 38.1108 7.74 38.1428 8.38H37.0508C37.0268 8.036 36.8868 7.76 36.6308 7.552C36.3828 7.344 36.0468 7.24 35.6228 7.24C35.2308 7.24 34.9188 7.324 34.6868 7.492C34.4548 7.66 34.3388 7.88 34.3388 8.152C34.3388 8.368 34.4068 8.548 34.5428 8.692C34.6868 8.828 34.8628 8.94 35.0708 9.028C35.2868 9.108 35.5828 9.2 35.9588 9.304C36.4308 9.432 36.8148 9.56 37.1108 9.688C37.4068 9.808 37.6588 9.992 37.8668 10.24C38.0828 10.488 38.1948 10.812 38.2028 11.212C38.2028 11.572 38.1028 11.896 37.9028 12.184C37.7028 12.472 37.4188 12.7 37.0508 12.868C36.6908 13.028 36.2748 13.108 35.8028 13.108ZM41.0763 7.324V11.2C41.0763 11.52 41.1443 11.748 41.2803 11.884C41.4163 12.012 41.6523 12.076 41.9883 12.076H42.7923V13H41.8083C41.2003 13 40.7443 12.86 40.4403 12.58C40.1363 12.3 39.9843 11.84 39.9843 11.2V7.324H39.1323V6.424H39.9843V4.768H41.0763V6.424H42.7923V7.324H41.0763ZM47.3794 6.304C47.8754 6.304 48.3234 6.412 48.7234 6.628C49.1234 6.836 49.4354 7.152 49.6594 7.576C49.8914 8 50.0074 8.516 50.0074 9.124V13H48.9274V9.28C48.9274 8.624 48.7634 8.124 48.4354 7.78C48.1074 7.428 47.6594 7.252 47.0914 7.252C46.5154 7.252 46.0554 7.432 45.7114 7.792C45.3754 8.152 45.2074 8.676 45.2074 9.364V13H44.1154V4.12H45.2074V7.36C45.4234 7.024 45.7194 6.764 46.0954 6.58C46.4794 6.396 46.9074 6.304 47.3794 6.304ZM52.3552 5.356C52.1472 5.356 51.9712 5.284 51.8272 5.14C51.6832 4.996 51.6112 4.82 51.6112 4.612C51.6112 4.404 51.6832 4.228 51.8272 4.084C51.9712 3.94 52.1472 3.868 52.3552 3.868C52.5552 3.868 52.7232 3.94 52.8592 4.084C53.0032 4.228 53.0752 4.404 53.0752 4.612C53.0752 4.82 53.0032 4.996 52.8592 5.14C52.7232 5.284 52.5552 5.356 52.3552 5.356ZM52.8832 6.424V13H51.7912V6.424H52.8832ZM57.0723 13.108C56.5683 13.108 56.1163 13.024 55.7163 12.856C55.3163 12.68 55.0003 12.44 54.7683 12.136C54.5363 11.824 54.4083 11.468 54.3843 11.068H55.5123C55.5443 11.396 55.6963 11.664 55.9683 11.872C56.2483 12.08 56.6123 12.184 57.0603 12.184C57.4763 12.184 57.8043 12.092 58.0443 11.908C58.2843 11.724 58.4043 11.492 58.4043 11.212C58.4043 10.924 58.2763 10.712 58.0203 10.576C57.7643 10.432 57.3683 10.292 56.8323 10.156C56.3443 10.028 55.9443 9.9 55.6323 9.772C55.3283 9.636 55.0643 9.44 54.8403 9.184C54.6243 8.92 54.5163 8.576 54.5163 8.152C54.5163 7.816 54.6163 7.508 54.8163 7.228C55.0163 6.948 55.3003 6.728 55.6683 6.568C56.0363 6.4 56.4563 6.316 56.9283 6.316C57.6563 6.316 58.2443 6.5 58.6923 6.868C59.1403 7.236 59.3803 7.74 59.4123 8.38H58.3203C58.2963 8.036 58.1563 7.76 57.9003 7.552C57.6523 7.344 57.3163 7.24 56.8923 7.24C56.5003 7.24 56.1883 7.324 55.9563 7.492C55.7243 7.66 55.6083 7.88 55.6083 8.152C55.6083 8.368 55.6763 8.548 55.8123 8.692C55.9563 8.828 56.1323 8.94 56.3403 9.028C56.5563 9.108 56.8523 9.2 57.2283 9.304C57.7003 9.432 58.0843 9.56 58.3803 9.688C58.6763 9.808 58.9283 9.992 59.1363 10.24C59.3523 10.488 59.4643 10.812 59.4723 11.212C59.4723 11.572 59.3723 11.896 59.1723 12.184C58.9723 12.472 58.6883 12.7 58.3203 12.868C57.9603 13.028 57.5443 13.108 57.0723 13.108ZM61.5778 5.356C61.3698 5.356 61.1938 5.284 61.0498 5.14C60.9058 4.996 60.8338 4.82 60.8338 4.612C60.8338 4.404 60.9058 4.228 61.0498 4.084C61.1938 3.94 61.3698 3.868 61.5778 3.868C61.7778 3.868 61.9458 3.94 62.0818 4.084C62.2258 4.228 62.2978 4.404 62.2978 4.612C62.2978 4.82 62.2258 4.996 62.0818 5.14C61.9458 5.284 61.7778 5.356 61.5778 5.356ZM62.1058 6.424V13H61.0138V6.424H62.1058ZM63.559 9.688C63.559 9.016 63.695 8.428 63.967 7.924C64.239 7.412 64.611 7.016 65.083 6.736C65.563 6.456 66.095 6.316 66.679 6.316C67.255 6.316 67.755 6.44 68.179 6.688C68.603 6.936 68.919 7.248 69.127 7.624V6.424H70.231V13H69.127V11.776C68.911 12.16 68.587 12.48 68.155 12.736C67.731 12.984 67.235 13.108 66.667 13.108C66.083 13.108 65.555 12.964 65.083 12.676C64.611 12.388 64.239 11.984 63.967 11.464C63.695 10.944 63.559 10.352 63.559 9.688ZM69.127 9.7C69.127 9.204 69.027 8.772 68.827 8.404C68.627 8.036 68.355 7.756 68.011 7.564C67.675 7.364 67.303 7.264 66.895 7.264C66.487 7.264 66.115 7.36 65.779 7.552C65.443 7.744 65.175 8.024 64.975 8.392C64.775 8.76 64.675 9.192 64.675 9.688C64.675 10.192 64.775 10.632 64.975 11.008C65.175 11.376 65.443 11.66 65.779 11.86C66.115 12.052 66.487 12.148 66.895 12.148C67.303 12.148 67.675 12.052 68.011 11.86C68.355 11.66 68.627 11.376 68.827 11.008C69.027 10.632 69.127 10.196 69.127 9.7ZM72.4243 13.072C72.2163 13.072 72.0403 13 71.8963 12.856C71.7523 12.712 71.6803 12.536 71.6803 12.328C71.6803 12.12 71.7523 11.944 71.8963 11.8C72.0403 11.656 72.2163 11.584 72.4243 11.584C72.6243 11.584 72.7923 11.656 72.9283 11.8C73.0723 11.944 73.1443 12.12 73.1443 12.328C73.1443 12.536 73.0723 12.712 72.9283 12.856C72.7923 13 72.6243 13.072 72.4243 13.072ZM74.1879 9.7C74.1879 9.02 74.3239 8.428 74.5959 7.924C74.8679 7.412 75.2439 7.016 75.7239 6.736C76.2119 6.456 76.7679 6.316 77.3919 6.316C78.1999 6.316 78.8639 6.512 79.3839 6.904C79.9119 7.296 80.2599 7.84 80.4279 8.536H79.2519C79.1399 8.136 78.9199 7.82 78.5919 7.588C78.2719 7.356 77.8719 7.24 77.3919 7.24C76.7679 7.24 76.2639 7.456 75.8799 7.888C75.4959 8.312 75.3039 8.916 75.3039 9.7C75.3039 10.492 75.4959 11.104 75.8799 11.536C76.2639 11.968 76.7679 12.184 77.3919 12.184C77.8719 12.184 78.2719 12.072 78.5919 11.848C78.9119 11.624 79.1319 11.304 79.2519 10.888H80.4279C80.2519 11.56 79.8999 12.1 79.3719 12.508C78.8439 12.908 78.1839 13.108 77.3919 13.108C76.7679 13.108 76.2119 12.968 75.7239 12.688C75.2439 12.408 74.8679 12.012 74.5959 11.5C74.3239 10.988 74.1879 10.388 74.1879 9.7ZM84.7529 13.108C84.1369 13.108 83.5769 12.968 83.0729 12.688C82.5769 12.408 82.1849 12.012 81.8969 11.5C81.6169 10.98 81.4769 10.38 81.4769 9.7C81.4769 9.028 81.6209 8.436 81.9089 7.924C82.2049 7.404 82.6049 7.008 83.1089 6.736C83.6129 6.456 84.1769 6.316 84.8009 6.316C85.4249 6.316 85.9889 6.456 86.4929 6.736C86.9969 7.008 87.3929 7.4 87.6809 7.912C87.9769 8.424 88.1249 9.02 88.1249 9.7C88.1249 10.38 87.9729 10.98 87.6689 11.5C87.3729 12.012 86.9689 12.408 86.4569 12.688C85.9449 12.968 85.3769 13.108 84.7529 13.108ZM84.7529 12.148C85.1449 12.148 85.5129 12.056 85.8569 11.872C86.2009 11.688 86.4769 11.412 86.6849 11.044C86.9009 10.676 87.0089 10.228 87.0089 9.7C87.0089 9.172 86.9049 8.724 86.6969 8.356C86.4889 7.988 86.2169 7.716 85.8809 7.54C85.5449 7.356 85.1809 7.264 84.7889 7.264C84.3889 7.264 84.0209 7.356 83.6849 7.54C83.3569 7.716 83.0929 7.988 82.8929 8.356C82.6929 8.724 82.5929 9.172 82.5929 9.7C82.5929 10.236 82.6889 10.688 82.8809 11.056C83.0809 11.424 83.3449 11.7 83.6729 11.884C84.0009 12.06 84.3609 12.148 84.7529 12.148ZM97.4687 6.304C97.9807 6.304 98.4367 6.412 98.8367 6.628C99.2367 6.836 99.5527 7.152 99.7847 7.576C100.017 8 100.133 8.516 100.133 9.124V13H99.0527V9.28C99.0527 8.624 98.8887 8.124 98.5607 7.78C98.2407 7.428 97.8047 7.252 97.2527 7.252C96.6847 7.252 96.2327 7.436 95.8967 7.804C95.5607 8.164 95.3927 8.688 95.3927 9.376V13H94.3127V9.28C94.3127 8.624 94.1487 8.124 93.8207 7.78C93.5007 7.428 93.0647 7.252 92.5127 7.252C91.9447 7.252 91.4927 7.436 91.1567 7.804C90.8207 8.164 90.6527 8.688 90.6527 9.376V13H89.5607V6.424H90.6527V7.372C90.8687 7.028 91.1567 6.764 91.5167 6.58C91.8847 6.396 92.2887 6.304 92.7287 6.304C93.2807 6.304 93.7687 6.428 94.1927 6.676C94.6167 6.924 94.9327 7.288 95.1407 7.768C95.3247 7.304 95.6287 6.944 96.0527 6.688C96.4767 6.432 96.9487 6.304 97.4687 6.304Z" fill="#BFBFBF"/>
<defs>
<clipPath id="clip0_1_5">
<rect width="15" height="15" fill="white" transform="translate(0 1.5)"/>
</clipPath>
</defs>
</svg>
